<svg width="115" height="62" viewBox="0 0 115 62" fill="none" xmlns="http://www.w3.org/2000/svg">
<path d="M0 0H115V62H0V0Z" fill="black"/>
<path d="M34.44 41.96C34.7067 42.0933 34.9067 42.2667 35.04 42.48C35.2 42.6933 35.28 43 35.28 43.4C35.28 43.9067 35.08 44.32 34.68 44.64C34.3067 44.9333 33.8667 45.08 33.36 45.08C32.7733 45.08 32.1067 44.9333 31.36 44.64C29.8667 43.9733 28.4 42.7467 26.96 40.96C25.5467 39.1467 23.84 36.5467 21.84 33.16C20.32 34.3333 18.7733 35.4267 17.2 36.44C17.2 37 17.2133 37.6533 17.24 38.4C17.2933 39.12 17.32 39.6533 17.32 40C17.3733 41.5467 17.4 42.5733 17.4 43.08C17.4 43.5333 17.2533 43.9733 16.96 44.4C16.6667 44.8 16.2267 45 15.64 45C14.7867 45 14.1733 44.8667 13.8 44.6C13.4267 44.3067 13.2 43.8933 13.12 43.36C12.9067 42.0267 12.8 40.7467 12.8 39.52C12.8 38.1333 12.9067 36.1333 13.12 33.52C13.3333 31.0133 13.44 29.1333 13.44 27.88C13.44 27.4 13.4133 26.7067 13.36 25.8C13.3333 25.08 13.2533 24.4133 13.12 23.8C13.0133 22.9467 12.96 22.3467 12.96 22C12.96 21.1467 13.1467 20.5333 13.52 20.16C13.8933 19.7867 14.4667 19.6 15.24 19.6C15.8267 19.6 16.3067 19.7733 16.68 20.12C17.08 20.44 17.3067 20.88 17.36 21.44C17.4933 23.7067 17.56 25.4533 17.56 26.68C17.5333 27.3467 17.48 28.3067 17.4 29.56C17.3467 30.7867 17.2933 31.56 17.24 31.88C18.1467 31.3733 19.92 29.92 22.56 27.52C25.2267 25.0933 27.12 23.1867 28.24 21.8L28.76 21.2C29.1867 20.64 29.5467 20.2533 29.84 20.04C30.1333 19.8267 30.5333 19.72 31.04 19.72C31.5467 19.72 32 19.8933 32.4 20.24C32.8267 20.56 33.04 20.9467 33.04 21.4C33.04 22.28 32.5867 23.1733 31.68 24.08C29.4667 26.3733 27.2533 28.5067 25.04 30.48C28.16 36.32 31.2933 40.1467 34.44 41.96ZM55.8669 43.08C55.8669 43.6667 55.5469 44.16 54.9069 44.56C54.2935 44.96 53.7202 45.16 53.1869 45.16C52.1735 45.16 51.3602 45.04 50.7469 44.8C50.1602 44.5333 49.6135 44.0533 49.1069 43.36C48.4135 43.9733 47.4669 44.44 46.2669 44.76C45.0669 45.0533 43.9602 45.2 42.9469 45.2C41.2935 45.2 39.9335 44.76 38.8669 43.88C37.8002 42.9733 37.2669 41.6533 37.2669 39.92C37.2669 39.1733 37.4669 38.4933 37.8669 37.88C38.2669 37.24 38.8135 36.68 39.5069 36.2C40.2802 35.6933 41.1602 35.3067 42.1469 35.04C43.1335 34.7467 44.1602 34.6 45.2269 34.6C45.7869 34.6 46.4535 34.7067 47.2269 34.92C48.0002 35.1333 48.6002 35.36 49.0269 35.6V34.96C49.0269 33.52 48.6802 32.5333 47.9869 32C47.2935 31.44 46.1735 31.16 44.6269 31.16C44.1735 31.16 43.7202 31.2533 43.2669 31.44C42.8402 31.6267 42.3469 31.88 41.7869 32.2C41.0402 32.6 40.3335 32.8 39.6669 32.8C39.4269 32.8 39.2002 32.64 38.9869 32.32C38.7735 31.9733 38.6669 31.6667 38.6669 31.4C38.6669 30.6267 39.0269 29.96 39.7469 29.4C40.4935 28.84 41.3735 28.4267 42.3869 28.16C43.4002 27.8667 44.3069 27.72 45.1069 27.72C45.9069 27.72 46.8269 27.88 47.8669 28.2C48.9069 28.4933 49.7602 28.9067 50.4269 29.44C51.2269 30.1333 51.8402 30.9467 52.2669 31.88C52.7202 32.7867 52.9469 33.7867 52.9469 34.88C52.9469 35.2267 52.9202 35.7467 52.8669 36.44C52.8135 37.1867 52.7869 37.8267 52.7869 38.36C52.7869 38.6 52.7602 38.96 52.7069 39.44C52.6535 40.0267 52.6269 40.4933 52.6269 40.84C52.6269 41.16 52.7469 41.44 52.9869 41.68C53.2269 41.8933 53.5069 42 53.8269 42L54.9469 41.96C55.2402 41.96 55.4669 42.0667 55.6269 42.28C55.7869 42.4933 55.8669 42.76 55.8669 43.08ZM42.9869 42.04C44.1335 42.04 45.0935 41.92 45.8669 41.68C46.6402 41.44 47.5735 41 48.6669 40.36C48.7735 39.9067 48.8402 39.3067 48.8669 38.56C47.4002 37.8667 46.1869 37.52 45.2269 37.52C44.1335 37.52 43.1602 37.72 42.3069 38.12C41.4535 38.52 41.0269 39.2267 41.0269 40.24C41.0269 40.7467 41.2402 41.1733 41.6669 41.52C42.0935 41.8667 42.5335 42.04 42.9869 42.04ZM64.4463 43.4C64.4463 43.8533 64.2729 44.2533 63.9263 44.6C63.5796 44.9467 63.1529 45.12 62.6463 45.12C61.8463 45.12 61.2596 44.9733 60.8863 44.68C60.5129 44.36 60.3263 43.7867 60.3263 42.96C60.3263 41.9733 60.2996 40.68 60.2463 39.08C60.1929 37.7467 60.1663 36.6267 60.1663 35.72C60.1663 35.2933 60.1929 34.7333 60.2463 34.04C60.2996 33.4 60.3263 32.92 60.3263 32.6C60.2463 32.0933 60.0463 31.68 59.7263 31.36C59.4063 31.0133 58.9929 30.84 58.4863 30.84C58.2463 30.84 58.0463 30.7333 57.8863 30.52C57.7263 30.28 57.6463 30.04 57.6463 29.8C57.6463 29.1867 57.8863 28.72 58.3663 28.4C58.8729 28.08 59.4729 27.92 60.1663 27.92C61.6063 27.92 62.6063 28.7733 63.1663 30.48C63.8596 29.68 64.6463 29.04 65.5263 28.56C66.4329 28.0533 67.2996 27.8 68.1263 27.8C69.1129 27.8 70.0063 28.0667 70.8063 28.6C71.6329 29.1333 72.0463 29.8533 72.0463 30.76C72.0463 31.2667 71.8196 31.7867 71.3663 32.32C70.9396 32.8533 70.4996 33.12 70.0463 33.12C69.8063 33.12 69.5929 33.0667 69.4063 32.96C69.2463 32.8267 69.0463 32.64 68.8063 32.4C68.5396 32.1333 68.3129 31.9467 68.1263 31.84C67.9396 31.7067 67.7263 31.64 67.4863 31.64C67.0596 31.64 66.6596 31.7067 66.2863 31.84C65.9129 31.9733 65.6596 32.1333 65.5263 32.32C65.0996 32.9867 64.7796 33.5867 64.5663 34.12C64.3796 34.6533 64.2863 35.2267 64.2863 35.84C64.2863 36.2933 64.2729 36.6533 64.2463 36.92L64.2063 39.2C64.2063 39.5467 64.2196 39.9333 64.2463 40.36C64.2729 40.7867 64.2996 41.1067 64.3263 41.32C64.4063 42.04 64.4463 42.7333 64.4463 43.4ZM74.3847 31.24C73.718 30.68 73.3847 30.0267 73.3847 29.28C73.3847 28.9067 73.5714 28.5733 73.9447 28.28C74.318 27.96 74.7714 27.8 75.3047 27.8C76.2647 27.8 77.0514 28.0533 77.6647 28.56C78.278 29.0667 78.8114 29.8 79.2647 30.76C79.8247 29.72 80.5314 28.96 81.3847 28.48C82.2647 27.9733 83.3714 27.72 84.7047 27.72C85.5047 27.72 86.1447 27.8267 86.6247 28.04C87.1314 28.2267 87.5447 28.5067 87.8647 28.88C88.1847 29.2267 88.5847 29.76 89.0647 30.48C89.758 29.6267 90.6247 28.96 91.6647 28.48C92.7314 28 93.8247 27.76 94.9447 27.76C96.2514 27.76 97.438 28.3067 98.5047 29.4C99.598 30.4933 100.331 31.7333 100.705 33.12C100.838 33.7067 100.931 35.0933 100.985 37.28L101.145 39.6C101.278 41.0133 101.731 41.8533 102.505 42.12C102.878 42.2267 103.185 42.36 103.425 42.52C103.691 42.6533 103.825 42.8 103.825 42.96C103.878 43.6 103.731 44.0667 103.385 44.36C103.145 44.52 102.811 44.6933 102.385 44.88C101.958 45.0667 101.625 45.16 101.385 45.16C99.9447 45.16 98.918 44.64 98.3047 43.6C97.9047 42.9067 97.6514 42.12 97.5447 41.24C97.438 40.3333 97.3847 39.1067 97.3847 37.56C97.3847 35.9067 97.1847 34.4933 96.7847 33.32C96.3847 32.12 95.478 31.52 94.0647 31.52C93.558 31.52 93.0514 31.68 92.5447 32C92.0647 32.2933 91.718 32.6667 91.5047 33.12C91.1314 33.84 90.878 34.6267 90.7447 35.48C90.6114 36.3067 90.5447 37.2667 90.5447 38.36C90.5447 39.0533 90.5847 39.76 90.6647 40.48C90.6647 40.6933 90.678 41.04 90.7047 41.52C90.758 41.9733 90.7847 42.3867 90.7847 42.76C90.7847 43.4267 90.6514 44 90.3847 44.48C90.1447 44.9333 89.718 45.16 89.1047 45.16C87.638 45.16 86.8647 44.3867 86.7847 42.84C86.7847 41.7467 86.798 41.16 86.8247 41.08V39.36C86.8247 38.4 86.7847 37.4667 86.7047 36.56C86.6247 35.6533 86.5314 34.9733 86.4247 34.52C86.1847 33.64 85.8647 32.96 85.4647 32.48C85.0647 32 84.4514 31.76 83.6247 31.76C83.0647 31.76 82.5447 31.8933 82.0647 32.16C81.5847 32.4267 81.1714 32.8 80.8247 33.28C80.318 34.08 79.9847 35.0533 79.8247 36.2C79.6647 37.6667 79.5447 38.8267 79.4647 39.68C79.4114 40.5067 79.3847 41.4667 79.3847 42.56C79.3847 43.3333 79.2514 43.96 78.9847 44.44C78.7447 44.92 78.278 45.16 77.5847 45.16C77.078 45.16 76.5447 45.0267 75.9847 44.76C75.4514 44.4667 75.1847 44.08 75.1847 43.6C75.1847 43.0933 75.238 42.5867 75.3447 42.08C75.5847 40.56 75.7047 37.9733 75.7047 34.32C75.7047 33.7333 75.5714 33.16 75.3047 32.6C75.0647 32.0133 74.758 31.56 74.3847 31.24Z" fill="#14E059"/>
</svg>
