<svg xmlns="http://www.w3.org/2000/svg" version="1.1" xmlns:xlink="http://www.w3.org/1999/xlink" xmlns:svgjs="http://svgjs.dev/svgjs" width="1000" height="1000" viewBox="200 200 800 800"><rect width="800" height="800" fill="#000000"></rect><g transform="matrix(0.7,0,0,0.7,149.57575757575756,282.1265587044535)"><svg viewBox="0 0 396 247" data-background-color="#dedede" preserveAspectRatio="xMidYMid meet" height="623" width="1000" xmlns="http://www.w3.org/2000/svg" xmlns:xlink="http://www.w3.org/1999/xlink"><defs></defs><g id="tight-bounds" transform="matrix(1,0,0,1,0.2400000000000091,-0.09999999999999432)"><svg viewBox="0 0 395.52 247.2" height="247.2" width="395.52"><g><svg></svg></g><g><svg viewBox="0 0 395.52 247.2" height="247.2" width="395.52"><g transform="matrix(1,0,0,1,75.54432,88.43372579310343)"><svg viewBox="0 0 244.43135999999998 70.3325484137931" height="70.3325484137931" width="244.43135999999998"><g><svg viewBox="0 0 244.43135999999998 70.3325484137931" height="70.3325484137931" width="244.43135999999998"><g><svg viewBox="0 0 244.43135999999998 70.3325484137931" height="70.3325484137931" width="244.43135999999998"><g><svg viewBox="0 0 244.43135999999998 70.3325484137931" height="70.3325484137931" width="244.43135999999998"><g><svg viewBox="0 0 244.43135999999998 70.3325484137931" height="70.3325484137931" width="244.43135999999998"><g><svg viewBox="0 0 244.43135999999998 70.3325484137931" height="70.3325484137931" width="244.43135999999998"><g transform="matrix(1,0,0,1,0,0)"><svg width="244.43135999999998" viewBox="4.75 -36.95000076293945 130.49000549316406 37.54999923706055" height="70.3325484137931" data-palette-color="#374151"><path d="M27.6-31.55L18.1-31.55 11.8 0 7.95 0 14.25-31.55 4.75-31.55 5.45-34.9 28.3-34.9 27.6-31.55ZM34.7-32.05L34.7-32.05Q33.8-32.05 33.25-32.48 32.7-32.9 32.7-33.8L32.7-33.8Q32.7-34.25 32.9-35L32.9-35Q33.15-35.85 33.75-36.4 34.35-36.95 35.5-36.95L35.5-36.95Q36.4-36.95 36.95-36.52 37.5-36.1 37.5-35.2L37.5-35.2Q37.5-34.75 37.3-34L37.3-34Q37.05-33.15 36.45-32.6 35.85-32.05 34.7-32.05ZM33.3 0L29.45 0Q26.95 0 26.95-2.25L26.95-2.25Q26.95-2.65 27-3 27.05-3.35 27.15-3.75L27.15-3.75 31.55-25.8 35.25-25.8 30.75-3.2 33.95-3.2 33.3 0ZM42.5 0L38.8 0 43.95-25.8 47.65-25.8 46.65-20.75 47.15-20.75Q49.3-26.4 54.25-26.4L54.25-26.4Q56.6-26.4 57.9-24.93 59.2-23.45 59.45-20.75L59.45-20.75 59.95-20.75Q61.05-23.7 63-25.05 64.95-26.4 67.59-26.4L67.59-26.4Q70.2-26.4 71.55-24.65 72.9-22.9 72.9-19.7L72.9-19.7Q72.9-18.9 72.77-18 72.65-17.1 72.4-16L72.4-16 69.84-3.2 73.05-3.2 72.4 0 68.5 0Q66.05 0 66.05-2.35L66.05-2.35Q66.05-2.75 66.09-3.1 66.15-3.45 66.25-3.85L66.25-3.85 68.7-16.1Q69.09-18 69.09-19.4L69.09-19.4Q69.09-21.4 68.25-22.25 67.4-23.1 65.95-23.1L65.95-23.1Q63.35-23.1 61.7-21.05L61.7-21.05Q60.65-19.75 59.87-18.07 59.1-16.4 58.85-15L58.85-15 55.85 0 52.15 0 55.35-16.1Q55.75-18 55.75-19.4L55.75-19.4Q55.75-21.4 54.9-22.25 54.05-23.1 52.6-23.1L52.6-23.1Q50-23.1 48.35-21.05L48.35-21.05Q47.3-19.75 46.52-18.07 45.75-16.4 45.5-15L45.5-15 42.5 0ZM86.09 0.6L86.09 0.6Q81.74 0.6 79.62-1.88 77.49-4.35 77.49-8.35L77.49-8.35Q77.49-9.65 77.69-11.35 77.89-13.05 78.19-14.55L78.19-14.55Q79.34-20.3 82.39-23.35 85.44-26.4 89.94-26.4L89.94-26.4Q91.54-26.4 92.94-25.98 94.34-25.55 95.37-24.7 96.39-23.85 96.99-22.58 97.59-21.3 97.59-19.55L97.59-19.55Q97.59-15.15 93.57-13.2 89.54-11.25 81.49-11.1L81.49-11.1Q81.24-10.15 81.22-9.53 81.19-8.9 81.19-8.4L81.19-8.4Q81.19-5.4 82.52-4.03 83.84-2.65 86.34-2.65L86.34-2.65Q88.79-2.65 90.59-3.8 92.39-4.95 93.59-6.85L93.59-6.85 95.94-4.75Q94.39-2.2 91.82-0.8 89.24 0.6 86.09 0.6ZM89.59-23.25L89.59-23.25Q86.74-23.25 84.99-21.5 83.24-19.75 82.54-16.45L82.54-16.45 82.04-14Q85.49-14.15 87.77-14.5 90.04-14.85 91.39-15.45 92.74-16.05 93.29-17 93.84-17.95 93.84-19.3L93.84-19.3Q93.84-20.5 93.49-21.25 93.14-22 92.54-22.45 91.94-22.9 91.17-23.08 90.39-23.25 89.59-23.25ZM103.74 0L100.04 0 105.19-25.8 108.89-25.8 107.89-20.75 108.39-20.75Q110.29-25.8 115.09-25.8L115.09-25.8 116.84-25.8 116.09-22 113.89-22Q110.89-22 109.17-20.28 107.44-18.55 106.84-15.45L106.84-15.45 103.74 0ZM124.49 0.6L124.49 0.6Q121.49 0.6 119.39-0.63 117.29-1.85 115.89-4.1L115.89-4.1 118.44-6.3Q119.69-4.4 121.04-3.48 122.39-2.55 124.54-2.55L124.54-2.55Q126.94-2.55 128.44-3.75 129.94-4.95 129.94-7.35L129.94-7.35Q129.94-8.6 129.31-9.55 128.69-10.5 126.79-11.15L126.79-11.15 124.74-11.85Q123.64-12.2 122.56-12.68 121.49-13.15 120.66-13.9 119.84-14.65 119.31-15.75 118.79-16.85 118.79-18.5L118.79-18.5Q118.79-20.2 119.36-21.63 119.94-23.05 121.09-24.1 122.24-25.15 123.94-25.75 125.64-26.35 127.84-26.35L127.84-26.35Q130.39-26.35 132.06-25.48 133.74-24.6 135.24-22.6L135.24-22.6 132.69-20.4Q131.89-21.65 130.74-22.43 129.59-23.2 127.44-23.2L127.44-23.2Q124.89-23.2 123.66-22.08 122.44-20.95 122.44-18.95L122.44-18.95Q122.44-17.6 123.09-16.68 123.74-15.75 125.44-15.2L125.44-15.2 127.54-14.5Q128.89-14.05 129.96-13.53 131.04-13 131.84-12.2 132.64-11.4 133.06-10.3 133.49-9.2 133.49-7.6L133.49-7.6Q133.49-5.6 132.79-4.08 132.09-2.55 130.89-1.5 129.69-0.45 128.04 0.08 126.39 0.6 124.49 0.6Z" opacity="1" transform="matrix(1,0,0,1,0,0)" fill="#ffffff" class="undefined-text-0" data-fill-palette-color="primary" id="text-0"></path></svg></g></svg></g></svg></g></svg></g><g></g></svg></g></svg></g></svg></g><g><path d="M87.051 71.83A122.216 122.216 0 0 1 308.469 71.83L302.127 71.83A115.873 115.873 0 0 0 93.393 71.83L87.051 71.83M87.051 175.37A122.216 122.216 0 0 0 308.469 175.37L302.127 175.37A115.873 115.873 0 0 1 93.393 175.37L87.051 175.37" fill="#374151" stroke="transparent" data-fill-palette-color="tertiary"></path></g></svg></g></svg><rect width="395.52" height="247.2" fill="none" stroke="none" visibility="hidden"></rect></g></svg></g></svg>